<?xml version="1.0" standalone="no"?>
<!DOCTYPE svg PUBLIC "-//W3C//DTD SVG 20010904//EN"
 "http://www.w3.org/TR/2001/REC-SVG-20010904/DTD/svg10.dtd">
<svg version="1.0" xmlns="http://www.w3.org/2000/svg"
 width="120.000000pt" height="120.000000pt" viewBox="0 0 120.000000 120.000000"
 preserveAspectRatio="xMidYMid meet">
<metadata>
Created by potrace 1.11, written by Peter Selinger 2001-2013
</metadata>
<g transform="translate(0.000000,120.000000) scale(0.100000,-0.100000)"
fill="#000000" stroke="none">
<path d="M852 1086 c-11 -15 -24 -41 -28 -59 -3 -17 -17 -39 -30 -50 -16 -12
-24 -29 -24 -49 l0 -31 -21 27 c-12 15 -27 25 -35 22 -18 -7 -74 50 -74 76 0
22 -30 78 -42 78 -10 0 -48 -75 -48 -94 0 -9 -9 -20 -20 -26 -11 -6 -20 -18
-20 -26 0 -11 -6 -13 -19 -9 -13 4 -27 -1 -40 -14 l-21 -21 0 20 c0 12 -11 31
-25 44 -14 13 -25 29 -25 35 0 19 -40 91 -50 91 -14 0 -40 -55 -40 -85 0 -14
-4 -25 -8 -25 -5 0 -18 -9 -30 -20 -17 -16 -22 -32 -22 -70 0 -54 -1 -55 -77
-110 -50 -35 -83 -94 -83 -147 0 -21 11 -129 25 -241 22 -185 26 -207 50 -238
53 -69 153 -115 305 -140 271 -44 567 34 618 163 13 31 52 367 52 441 0 61
-40 127 -98 162 -48 29 -62 55 -62 114 0 32 -6 48 -25 66 -14 13 -25 35 -25
49 -1 14 -9 41 -19 60 l-18 33 -21 -26z m-509 -157 c56 -15 43 -39 -23 -39
-32 0 -45 13 -36 35 6 18 10 18 59 4z m295 -5 c20 -6 14 -24 -14 -34 -31 -12
-74 -3 -81 17 -11 28 33 36 95 17z m257 -10 c20 -20 5 -34 -35 -34 -34 0 -54
15 -47 34 8 21 61 21 82 0z m-405 -149 c10 6 20 -19 20 -51 0 -19 -5 -24 -27
-25 -24 0 -25 -2 -9 -8 19 -7 19 -8 -2 -13 -13 -4 -20 -2 -19 6 1 6 -4 10 -10
9 -9 -2 -13 12 -13 47 0 49 0 49 26 40 14 -6 29 -8 34 -5z m280 -35 l0 -50
-40 2 c-39 3 -40 4 -40 41 0 34 2 37 29 37 17 0 33 5 36 10 12 19 15 10 15
-40z m-568 -4 c14 -20 15 -29 6 -60 -29 -92 67 -153 138 -88 11 10 31 21 44
24 24 4 25 2 25 -44 0 -56 12 -68 65 -68 53 0 65 12 64 67 l0 48 55 0 56 0 0
-55 0 -55 51 -3 c61 -4 79 12 78 69 -1 39 -1 39 37 39 23 0 39 -5 39 -12 0
-24 34 -48 67 -48 41 0 83 38 83 75 0 14 -7 40 -16 56 -12 25 -13 33 -2 47 7
9 13 18 14 20 7 12 54 -35 69 -68 27 -60 16 -106 -39 -156 -189 -173 -784
-144 -908 44 -38 58 -3 186 52 191 3 0 13 -10 22 -23z"/>
</g>
</svg>
